# Blender v2.91.0 OBJ File: ''
# www.blender.org
mtllib bear.mtl
o Cube_Cube.002
v -1.000000 1.137200 1.662857
v -1.000000 3.137200 1.662857
v -1.000000 1.137200 -1.662857
v -1.000000 3.137200 -1.662857
v 1.000000 1.137200 1.662857
v 1.000000 3.137200 1.662857
v 1.000000 1.137200 -1.662857
v 1.000000 3.137200 -1.662857
v -1.000000 1.137200 -0.831429
v -1.000000 1.137200 0.000000
v -1.000000 1.137200 0.831429
v -1.000000 3.137200 0.831429
v -1.000000 3.137200 0.000000
v -1.000000 3.137200 -0.831429
v 1.000000 1.137200 0.831429
v 1.000000 1.137200 0.000000
v 1.000000 1.137200 -0.831429
v 1.000000 3.137200 -0.831429
v 1.000000 3.137200 0.000000
v 1.000000 3.137200 0.831429
v 0.333333 1.137200 -1.662857
v -0.333333 1.137200 -1.662857
v -0.333333 3.447485 -2.234436
v 0.333333 3.447485 -2.234436
v -0.333333 1.137200 1.662857
v 0.333333 1.137200 1.662857
v 0.333333 3.137200 1.662857
v -0.333333 3.137200 1.662857
v -0.333333 3.137200 -0.831429
v 0.333333 3.137200 -0.831429
v -0.333333 3.137200 0.000000
v 0.333333 3.137200 0.000000
v -0.333333 3.137200 0.831429
v 0.333333 3.137200 0.831429
v 0.333333 1.137200 -0.831429
v -0.333333 1.137200 -0.831429
v 0.333333 1.137200 0.000000
v -0.333333 1.137200 0.000000
v 0.333333 1.137200 0.831429
v -0.333333 1.137200 0.831429
v -1.000000 0.143970 0.831429
v -1.000000 0.143970 1.662857
v -0.333333 0.143970 -1.662857
v -1.000000 0.143970 -1.662857
v 1.000000 0.143970 -0.831429
v 1.000000 0.143970 -1.662857
v 0.333333 0.143970 1.662857
v 1.000000 0.143970 1.662857
v -1.000000 0.143970 -0.831429
v 1.000000 0.143970 0.831429
v -0.333333 0.143970 -0.831429
v -0.333333 0.143970 0.831429
v 0.333333 0.143970 -1.662857
v -0.333333 0.143970 1.662857
v 0.333333 0.143970 -0.831429
v 0.333333 0.143970 0.831429
v -0.333333 1.137200 -1.662857
v -0.333333 3.447485 -2.234436
v 0.125661 2.966137 -2.569233
v -0.125661 2.966137 -2.569233
v -0.125661 3.837075 -2.784708
v 0.125661 3.837075 -2.784708
v 0.227417 2.445085 -3.162748
v -0.227417 2.445085 -3.162748
v -0.227417 4.021281 -3.552708
v 0.227417 4.021281 -3.552708
v 0.131462 2.591832 -3.995917
v -0.131462 2.591832 -3.995917
v -0.131462 3.502979 -4.221340
v 0.131462 3.502979 -4.221340
vt 0.625000 0.187500
vt 0.375000 0.250000
vt 0.375000 0.187500
vt 0.375000 0.416667
vt 0.625000 0.500000
vt 0.375000 0.500000
vt 0.625000 0.687500
vt 0.375000 0.750000
vt 0.375000 0.687500
vt 0.625000 0.916667
vt 0.375000 1.000000
vt 0.375000 0.916667
vt 0.375000 0.562500
vt 0.375000 0.500000
vt 0.875000 0.687500
vt 0.791667 0.750000
vt 0.791667 0.687500
vt 0.875000 0.500000
vt 0.791667 0.562500
vt 0.791667 0.500000
vt 0.875000 0.562500
vt 0.791667 0.625000
vt 0.875000 0.625000
vt 0.208333 0.687500
vt 0.125000 0.687500
vt 0.125000 0.687500
vt 0.291667 0.625000
vt 0.291667 0.562500
vt 0.375000 0.625000
vt 0.291667 0.687500
vt 0.625000 0.562500
vt 0.625000 0.625000
vt 0.625000 0.000000
vt 0.375000 0.062500
vt 0.375000 0.000000
vt 0.625000 0.062500
vt 0.375000 0.125000
vt 0.625000 0.125000
vt 0.208333 0.625000
vt 0.125000 0.625000
vt 0.208333 0.562500
vt 0.125000 0.562500
vt 0.375000 0.416667
vt 0.291667 0.500000
vt 0.208333 0.500000
vt 0.708333 0.625000
vt 0.708333 0.687500
vt 0.708333 0.562500
vt 0.708333 0.500000
vt 0.625000 0.750000
vt 0.708333 0.750000
vt 0.375000 0.562500
vt 0.208333 0.750000
vt 0.375000 0.833333
vt 0.625000 0.833333
vt 0.625000 0.250000
vt 0.375000 0.333333
vt 0.625000 0.333333
vt 0.375000 0.333333
vt 0.375000 0.687500
vt 0.291667 0.750000
vt 0.291667 0.687500
vt 0.291667 0.562500
vt 0.291667 0.500000
vt 0.208333 0.500000
vt 0.125000 0.562500
vt 0.125000 0.500000
vt 0.208333 0.687500
vt 0.125000 0.750000
vt 0.375000 0.000000
vt 0.375000 0.750000
vt 0.375000 0.916667
vt 0.375000 0.250000
vt 0.291667 0.750000
vt 0.375000 0.187500
vt 0.208333 0.562500
vt 0.375000 0.333333
vt 0.625000 0.333333
vt 0.375000 0.416667
vt 0.625000 0.416667
vt 0.625000 0.416667
vt 0.791667 0.500000
vt 0.291667 0.500000
vt 0.625000 0.416667
vt 0.708333 0.500000
vt 0.791667 0.500000
vt 0.791667 0.500000
vt 0.708333 0.500000
vt 0.625000 0.333333
vt 0.375000 0.333333
vt 0.208333 0.500000
vt 0.291667 0.500000
vt 0.625000 0.333333
vt 0.375000 0.416667
vt 0.375000 0.333333
vt 0.208333 0.500000
vt 0.291667 0.500000
vt 0.375000 0.416667
vt 0.625000 0.416667
vt 0.625000 1.000000
vt 0.875000 0.750000
vt 0.625000 0.333333
vt 0.208333 0.750000
vt 0.375000 0.062500
vt 0.375000 0.833333
vt 0.375000 1.000000
vt 0.375000 0.333333
vt 0.708333 0.500000
vt 0.208333 0.500000
vn -1.0000 0.0000 0.0000
vn 0.0000 0.0000 -1.0000
vn 1.0000 0.0000 0.0000
vn 0.0000 0.0000 1.0000
vn 0.0000 1.0000 0.0000
vn -0.2600 0.9428 0.2085
vn 0.0000 -1.0000 0.0000
vn 0.0000 0.9764 0.2159
vn -0.9046 -0.1024 -0.4139
vn 0.9896 0.0345 0.1394
vn 0.0000 0.8162 0.5778
vn 0.0000 -0.4440 -0.8960
vn 0.9046 -0.1024 -0.4139
vn 0.0000 0.7904 -0.6127
vn 0.0000 0.9724 0.2332
vn -0.9896 0.0345 0.1394
vn 0.0000 -0.7515 0.6597
vn 0.0000 -0.2402 -0.9707
vn -0.9924 -0.0296 -0.1195
vn 0.0000 -0.9848 -0.1735
vn 0.9924 -0.0296 -0.1195
vn 0.5846 -0.1949 -0.7876
vn 0.2600 0.9428 0.2085
vn -0.5846 -0.1949 -0.7876
usemtl Material
s off
f 14/1/1 3/2/1 9/3/1
f 21/4/2 8/5/2 7/6/2
f 20/7/3 5/8/3 15/9/3
f 28/10/4 1/11/4 25/12/4
f 17/13/3 46/14/3 7/6/3
f 12/15/5 28/16/5 33/17/5
f 4/18/6 29/19/6 23/20/6
f 14/21/5 31/22/5 29/19/5
f 13/23/5 33/17/5 31/22/5
f 40/24/2 41/25/2 11/26/2
f 17/13/7 37/27/7 35/28/7
f 16/29/7 39/30/7 37/27/7
f 8/5/3 17/13/3 7/6/3
f 18/31/3 16/29/3 17/13/3
f 19/32/3 15/9/3 16/29/3
f 2/33/1 11/34/1 1/35/1
f 12/36/1 10/37/1 11/34/1
f 13/38/1 9/3/1 10/37/1
f 38/39/7 11/26/7 10/40/7
f 37/27/7 40/24/7 38/39/7
f 36/41/7 10/40/7 9/42/7
f 35/28/7 38/39/7 36/41/7
f 7/6/2 53/43/2 21/4/2
f 21/44/7 36/41/7 22/45/7
f 32/46/5 20/7/5 19/32/5
f 31/22/5 34/47/5 32/46/5
f 30/48/5 19/32/5 18/31/5
f 29/19/5 32/46/5 30/48/5
f 8/5/5 30/48/5 18/31/5
f 23/20/8 30/48/8 24/49/8
f 34/47/5 6/50/5 20/7/5
f 33/17/5 27/51/5 34/47/5
f 35/28/4 45/52/4 17/13/4
f 39/30/7 25/53/7 40/24/7
f 6/50/4 26/54/4 5/8/4
f 27/55/4 25/12/4 26/54/4
f 4/56/2 22/57/2 3/2/2
f 23/58/9 60/59/9 22/57/9
f 50/60/7 47/61/7 56/62/7
f 46/14/7 55/63/7 53/64/7
f 43/65/7 49/66/7 44/67/7
f 52/68/7 42/69/7 41/25/7
f 11/34/1 42/70/1 1/35/1
f 36/41/3 43/65/3 22/45/3
f 21/44/1 55/63/1 35/28/1
f 15/9/2 56/62/2 39/30/2
f 26/54/4 48/71/4 5/8/4
f 1/11/4 54/72/4 25/12/4
f 5/8/3 50/60/3 15/9/3
f 25/53/3 52/68/3 40/24/3
f 22/57/2 44/73/2 3/2/2
f 39/30/1 47/61/1 26/74/1
f 3/2/1 49/75/1 9/3/1
f 9/42/4 51/76/4 36/41/4
f 23/58/4 57/77/4 58/78/4
f 59/79/10 66/80/10 62/81/10
f 24/49/11 61/82/11 23/20/11
f 22/45/12 59/83/12 21/44/12
f 24/84/13 59/79/13 62/81/13
f 66/85/14 69/86/14 65/87/14
f 62/88/15 65/87/15 61/82/15
f 60/59/16 65/89/16 64/90/16
f 60/91/17 63/92/17 59/83/17
f 69/93/18 67/94/18 68/95/18
f 64/90/19 69/93/19 68/95/19
f 63/92/20 68/96/20 67/97/20
f 63/98/21 70/99/21 66/80/21
f 14/1/1 4/56/1 3/2/1
f 21/4/22 24/84/22 8/5/22
f 20/7/3 6/50/3 5/8/3
f 28/10/4 2/100/4 1/11/4
f 17/13/3 45/52/3 46/14/3
f 12/15/5 2/101/5 28/16/5
f 4/18/5 14/21/5 29/19/5
f 14/21/5 13/23/5 31/22/5
f 13/23/5 12/15/5 33/17/5
f 40/24/2 52/68/2 41/25/2
f 17/13/7 16/29/7 37/27/7
f 16/29/7 15/9/7 39/30/7
f 8/5/3 18/31/3 17/13/3
f 18/31/3 19/32/3 16/29/3
f 19/32/3 20/7/3 15/9/3
f 2/33/1 12/36/1 11/34/1
f 12/36/1 13/38/1 10/37/1
f 13/38/1 14/1/1 9/3/1
f 38/39/7 40/24/7 11/26/7
f 37/27/7 39/30/7 40/24/7
f 36/41/7 38/39/7 10/40/7
f 35/28/7 37/27/7 38/39/7
f 7/6/2 46/14/2 53/43/2
f 21/44/7 35/28/7 36/41/7
f 32/46/5 34/47/5 20/7/5
f 31/22/5 33/17/5 34/47/5
f 30/48/5 32/46/5 19/32/5
f 29/19/5 31/22/5 32/46/5
f 8/5/23 24/49/23 30/48/23
f 23/20/8 29/19/8 30/48/8
f 34/47/5 27/51/5 6/50/5
f 33/17/5 28/16/5 27/51/5
f 35/28/4 55/63/4 45/52/4
f 39/30/7 26/74/7 25/53/7
f 6/50/4 27/55/4 26/54/4
f 27/55/4 28/10/4 25/12/4
f 4/56/24 23/58/24 22/57/24
f 23/58/9 61/102/9 60/59/9
f 50/60/7 48/71/7 47/61/7
f 46/14/7 45/52/7 55/63/7
f 43/65/7 51/76/7 49/66/7
f 52/68/7 54/103/7 42/69/7
f 11/34/1 41/104/1 42/70/1
f 36/41/3 51/76/3 43/65/3
f 21/44/1 53/64/1 55/63/1
f 15/9/2 50/60/2 56/62/2
f 26/54/4 47/105/4 48/71/4
f 1/11/4 42/106/4 54/72/4
f 5/8/3 48/71/3 50/60/3
f 25/53/3 54/103/3 52/68/3
f 22/57/2 43/107/2 44/73/2
f 39/30/1 56/62/1 47/61/1
f 3/2/1 44/73/1 49/75/1
f 9/42/4 49/66/4 51/76/4
f 23/58/4 22/57/4 57/77/4
f 59/79/10 63/98/10 66/80/10
f 24/49/11 62/88/11 61/82/11
f 22/45/12 60/91/12 59/83/12
f 24/84/13 21/4/13 59/79/13
f 66/85/14 70/108/14 69/86/14
f 62/88/15 66/85/15 65/87/15
f 60/59/16 61/102/16 65/89/16
f 60/91/17 64/109/17 63/92/17
f 69/93/18 70/99/18 67/94/18
f 64/90/19 65/89/19 69/93/19
f 63/92/20 64/109/20 68/96/20
f 63/98/21 67/94/21 70/99/21
